<?xml version="1.0" standalone="no"?>
<!DOCTYPE svg PUBLIC "-//W3C//DTD SVG 20010904//EN"
 "http://www.w3.org/TR/2001/REC-SVG-20010904/DTD/svg10.dtd">
<svg version="1.0" xmlns="http://www.w3.org/2000/svg"
 width="135.000000pt" height="135.000000pt" viewBox="0 0 135.000000 135.000000"
 preserveAspectRatio="xMidYMid meet">
<metadata>
Created by potrace 1.11, written by Peter Selinger 2001-2013
</metadata>
<g transform="translate(0.000000,135.000000) scale(0.100000,-0.100000)"
fill="#000000" stroke="none">
<path d="M149 1255 c-18 -52 -36 -95 -40 -95 -4 0 -15 -23 -24 -50 -13 -38
-20 -48 -29 -41 -9 7 -19 6 -34 -5 -18 -12 -22 -25 -22 -69 0 -30 5 -57 10
-60 6 -3 10 -18 10 -33 0 -17 20 -57 50 -100 28 -40 50 -75 50 -77 0 -3 -13 4
-29 16 -17 12 -27 27 -24 35 3 8 -6 24 -21 35 -14 11 -26 27 -26 35 0 8 -4 14
-10 14 -5 0 -10 -13 -10 -30 0 -16 5 -30 10 -30 6 0 10 -13 10 -29 0 -34 40
-66 70 -56 15 5 20 2 20 -13 0 -29 -30 -36 -55 -12 -12 11 -26 20 -32 20 -6 0
-14 6 -16 13 -3 6 -6 -153 -6 -355 l-1 -368 78 0 c78 0 79 0 114 38 63 66 82
79 156 105 l72 25 4 -21 c3 -12 7 -38 11 -58 3 -21 15 -49 26 -63 21 -26 23
-27 130 -25 107 1 109 2 104 23 -5 20 -4 20 6 -1 12 -22 16 -23 178 -23 l167
0 -1 57 c0 47 3 58 18 61 12 2 17 -3 17 -17 0 -35 31 -101 48 -101 13 0 13 2
1 18 -22 25 -43 71 -37 77 3 3 29 -4 57 -16 44 -20 51 -27 51 -51 l0 -28 75 0
75 0 0 74 c0 59 -3 75 -16 80 -9 4 -14 13 -10 21 3 8 2 15 -3 15 -5 0 -11 -9
-14 -20 -3 -11 -13 -20 -22 -20 -9 0 -28 -9 -41 -19 -25 -20 -25 -20 -59 0
-18 11 -38 26 -44 33 -12 14 3 23 84 46 22 6 59 19 82 28 l43 17 0 482 0 483
-175 -5 c-160 -5 -176 -4 -173 11 2 13 -5 17 -30 18 -22 1 -32 -4 -33 -14 0
-13 -2 -12 -11 1 -10 14 -16 12 -47 -21 -30 -32 -45 -39 -91 -44 -77 -10 -161
-27 -179 -36 -24 -13 -54 -23 -81 -27 -14 -2 -38 -11 -55 -18 -38 -18 -110
-34 -151 -35 -20 0 -34 -6 -38 -16 -7 -19 12 -47 25 -38 5 3 9 -11 9 -30 0
-40 -11 -45 -38 -18 -37 37 -90 -21 -55 -60 9 -10 22 -18 30 -18 7 0 13 -4 13
-10 0 -17 -43 -4 -54 16 -29 54 -57 94 -67 94 -5 0 -7 -4 -4 -10 3 -5 1 -10
-5 -10 -6 0 -8 10 -5 23 4 12 1 35 -4 50 -9 22 -7 45 8 101 26 99 49 166 67
193 18 29 18 33 -5 33 -15 0 -26 -20 -52 -95z m550 -269 c-2 -2 -20 -6 -39
-10 -25 -4 -31 -3 -20 4 14 9 69 15 59 6z m-635 -22 c3 -8 2 -12 -4 -9 -6 3
-10 10 -10 16 0 14 7 11 14 -7z m296 -55 c0 -11 -4 -17 -10 -14 -5 3 -10 13
-10 21 0 8 5 14 10 14 6 0 10 -9 10 -21z m715 -9 c-3 -5 -11 -10 -16 -10 -6 0
-7 5 -4 10 3 6 11 10 16 10 6 0 7 -4 4 -10z m-657 -13 c17 -11 15 -24 -6 -29
-19 -5 -46 17 -37 31 6 10 24 9 43 -2z m-258 -47 c0 -5 -5 -10 -11 -10 -5 0
-7 5 -4 10 3 6 8 10 11 10 2 0 4 -4 4 -10z m90 -6 c0 -8 -19 -13 -24 -6 -3 5
1 9 9 9 8 0 15 -2 15 -3z m45 -4 c3 -6 -1 -7 -9 -4 -18 7 -21 14 -7 14 6 0 13
-4 16 -10z m-20 -21 c11 -17 -1 -21 -15 -4 -8 9 -8 15 -2 15 6 0 14 -5 17 -11z
m33 -34 c-3 -3 -9 2 -12 12 -6 14 -5 15 5 6 7 -7 10 -15 7 -18z m40 -2 c-6 -7
-14 -13 -19 -13 -5 0 -9 6 -9 13 0 7 9 13 19 13 15 0 17 -3 9 -13z m39 -19
c-3 -3 -12 -4 -19 -1 -8 3 -5 6 6 6 11 1 17 -2 13 -5z m-242 -44 c3 -5 -1 -10
-9 -10 -9 0 -16 5 -16 10 0 6 4 10 9 10 6 0 13 -4 16 -10z m1072 -16 c-3 -3
-12 -4 -19 -1 -8 3 -5 6 6 6 11 1 17 -2 13 -5z m61 -11 c-10 -2 -26 -2 -35 0
-10 3 -2 5 17 5 19 0 27 -2 18 -5z m-538 -33 c0 -5 -9 -14 -20 -20 -19 -10
-20 -10 -8 9 13 22 28 28 28 11z m-3 -81 c-24 -35 -56 -90 -72 -121 l-27 -58
-19 24 c-18 23 -19 27 -3 65 9 23 21 41 26 41 11 0 47 40 48 53 0 18 77 73 88
63 1 -2 -17 -32 -41 -67z m-81 41 c5 0 11 -7 12 -17 3 -14 1 -15 -8 -6 -7 6
-19 9 -26 6 -16 -6 -17 -2 -8 22 5 12 9 13 14 5 4 -6 11 -11 16 -10z m-141
-78 c-3 -3 -11 0 -18 7 -9 10 -8 11 6 5 10 -3 15 -9 12 -12z m465 -2 c13 -9
13 -10 0 -9 -8 0 -24 4 -35 9 l-20 9 20 0 c11 0 27 -4 35 -9z m120 -69 c0 -11
-4 -10 -16 5 -8 10 -13 13 -9 7 4 -8 0 -13 -9 -13 -9 0 -16 -4 -16 -9 0 -4
-13 -8 -30 -7 -36 1 -38 9 -8 30 27 19 42 21 32 4 -4 -8 -3 -10 2 -5 5 5 10
13 10 18 1 5 2 11 3 14 2 11 41 -30 41 -44z m-645 19 c3 -6 -1 -7 -9 -4 -12 4
-16 0 -16 -16 0 -13 -5 -20 -12 -17 -7 2 -12 10 -10 17 2 8 -3 10 -13 7 -8 -4
-15 -2 -15 3 0 17 65 26 75 10z m334 7 c-2 -1 -13 -9 -24 -17 -19 -14 -19 -14
-6 3 7 9 18 17 24 17 6 0 8 -1 6 -3z m323 -89 c-6 -6 -15 -8 -19 -4 -4 4 -1
11 7 16 19 12 27 3 12 -12z m-769 -163 c-3 -9 -8 -14 -10 -11 -3 3 -2 9 2 15
9 16 15 13 8 -4z m845 -126 c24 -15 30 -39 9 -39 -11 0 -74 40 -106 66 -1 1 0
8 4 14 7 11 21 4 93 -41z"/>
<path d="M1137 1343 c-15 -14 -6 -22 16 -14 40 14 121 4 136 -19 19 -28 35
-25 48 10 l11 30 -102 0 c-57 0 -106 -3 -109 -7z"/>
<path d="M1318 224 c-30 -16 -35 -24 -15 -24 16 0 54 27 47 33 -3 3 -17 -1
-32 -9z"/>
<path d="M348 45 c-37 -43 -35 -49 7 -23 38 22 56 19 35 -7 -11 -13 -7 -15 26
-14 22 1 32 3 23 6 -18 4 -51 57 -42 67 3 3 0 6 -8 5 -8 0 -26 -15 -41 -34z"/>
</g>
</svg>
